<?xml version="1.0" encoding="UTF-8" standalone="no"?>
<!-- Created with Inkscape (http://www.inkscape.org/) -->

<svg
   xmlns:dc="http://purl.org/dc/elements/1.1/"
   xmlns:cc="http://creativecommons.org/ns#"
   xmlns:rdf="http://www.w3.org/1999/02/22-rdf-syntax-ns#"
   xmlns:svg="http://www.w3.org/2000/svg"
   xmlns="http://www.w3.org/2000/svg"
   xmlns:sodipodi="http://sodipodi.sourceforge.net/DTD/sodipodi-0.dtd"
   xmlns:inkscape="http://www.inkscape.org/namespaces/inkscape"
   width="210mm"
   height="297mm"
   viewBox="0 0 210 297"
   version="1.1"
   id="svg8"
   inkscape:version="0.92.3 (2405546, 2018-03-11)"
   sodipodi:docname="WORR drawing.svg">
  <defs
     id="defs2" />
  <sodipodi:namedview
     id="base"
     pagecolor="#ffffff"
     bordercolor="#666666"
     borderopacity="1.0"
     inkscape:pageopacity="0.0"
     inkscape:pageshadow="2"
     inkscape:zoom="0.75544332"
     inkscape:cx="396.85039"
     inkscape:cy="561.25984"
     inkscape:document-units="mm"
     inkscape:current-layer="layer1"
     showgrid="false"
     inkscape:window-width="1920"
     inkscape:window-height="1017"
     inkscape:window-x="-8"
     inkscape:window-y="-8"
     inkscape:window-maximized="1" />
  <metadata
     id="metadata5">
    <rdf:RDF>
      <cc:Work
         rdf:about="">
        <dc:format>image/svg+xml</dc:format>
        <dc:type
           rdf:resource="http://purl.org/dc/dcmitype/StillImage" />
        <dc:title></dc:title>
      </cc:Work>
    </rdf:RDF>
  </metadata>
  <g
     inkscape:label="Layer 1"
     inkscape:groupmode="layer"
     id="layer1">
    <path
       style="fill:none;stroke:#000000;stroke-width:0.26458332px;stroke-linecap:butt;stroke-linejoin:miter;stroke-opacity:1"
       d="m 97.715802,135.19104 24.166268,11.55778 -10.15684,-30.47052 -0.35023,-7.70519 -3.15212,-5.60377 -2.80189,5.60377 v 3.50236 l -2.80189,-5.25354 -0.35023,-33.272402 c -4.903304,-10.156839 -8.055427,-10.156839 -2.801889,-5.603773 5.253539,4.553066 -4.903302,-4.903302 -4.903302,-4.903302"
       id="path3715"
       inkscape:connector-curvature="0" />
    <path
       inkscape:connector-curvature="0"
       id="path3717"
       d="m 97.715802,135.19104 24.166268,11.55778 -10.15684,-30.47052 -0.35023,-7.70519 -3.15212,-5.60377 -2.80189,5.60377 v 3.50236 l -2.80189,-5.25354 -0.35023,-33.272402 c -4.903304,-10.156839 -8.055427,-10.156839 -2.801889,-5.603773 5.253539,4.553066 -4.903302,-4.903302 -4.903302,-4.903302"
       style="fill:none;stroke:#000000;stroke-width:0.26458332px;stroke-linecap:butt;stroke-linejoin:miter;stroke-opacity:1" />
    <path
       style="fill:none;stroke:#000000;stroke-width:0.26458332px;stroke-linecap:butt;stroke-linejoin:miter;stroke-opacity:1"
       d="m 91.411549,135.19103 -24.16626,11.55778 10.15684,-30.47052 0.35023,-7.70519 3.15212,-5.60377 2.80189,5.60377 v 3.50236 l 2.80189,-5.25354 0.35023,-33.272392 c 4.9033,-10.156839 8.05542,-10.156839 2.80189,-5.603773 -5.25354,4.553066 4.9033,-4.903302 4.9033,-4.903302"
       id="path3719"
       inkscape:connector-curvature="0" />
    <path
       style="fill:#000000;stroke:#000000;stroke-width:0.26458332px;stroke-linecap:butt;stroke-linejoin:miter;stroke-opacity:1"
       d="m 91.411548,135.19103 6.304254,10e-6 v 0 0"
       id="path3721"
       inkscape:connector-curvature="0" />
    <path
       style="fill:#000000;stroke-width:1.32372606"
       d="m 256.53543,551.11561 c 0,-0.19176 8.26212,-25.11921 18.36027,-55.39433 17.8849,-53.62049 18.38241,-55.41933 19.21575,-69.47788 0.78408,-13.22748 1.26806,-15.23241 5.79774,-24.01803 2.71823,-5.27218 5.26115,-9.59083 5.65092,-9.59701 0.38978,-0.007 2.62357,3.87196 4.96398,8.61806 3.22407,6.5381 4.25529,10.38754 4.25529,15.88471 0,3.9905 0.54393,7.25544 1.20874,7.25544 0.66481,0 3.58209,-4.40004 6.48285,-9.77786 l 5.27411,-9.77786 0.93946,-63.35801 0.93946,-63.358 5.24059,-9.92794 c 2.88232,-5.46037 9.06609,-14.09769 13.7417,-19.19403 l 8.50111,-9.26608 8.95076,9.32478 c 5.26033,5.48015 11.1089,13.3927 14.18513,19.19113 l 5.23437,9.86634 0.52549,62.87989 0.5255,62.87989 5.4918,10.25756 c 3.02049,5.64167 5.93856,10.25816 6.4846,10.25888 0.54604,7.3e-4 0.9928,-2.99194 0.9928,-6.65036 0,-4.98988 1.17871,-8.9923 4.71799,-16.02038 2.5949,-5.15278 4.91665,-9.15873 5.15942,-8.9021 0.24279,0.25662 2.6907,4.31736 5.4398,9.02385 4.76694,8.16105 5.02296,9.20302 5.52939,22.50335 0.52599,13.81371 0.70728,14.47768 19.10203,69.95627 10.21404,30.80562 18.30001,56.28121 17.96879,56.61241 -0.33121,0.33121 -19.8582,-8.64119 -43.3933,-19.93867 l -42.79111,-20.54087 h -13.59144 -13.59145 l -42.97767,20.51776 c -39.76569,18.98433 -44.53487,21.14422 -44.53487,20.16909 z"
       id="path3723"
       inkscape:connector-curvature="0"
       transform="scale(0.26458333)" />
  </g>
</svg>
