<?xml version="1.0" encoding="UTF-8" standalone="no"?>
<!-- Created with Inkscape (http://www.inkscape.org/) -->

<svg
   xmlns:dc="http://purl.org/dc/elements/1.1/"
   xmlns:cc="http://creativecommons.org/ns#"
   xmlns:rdf="http://www.w3.org/1999/02/22-rdf-syntax-ns#"
   xmlns:svg="http://www.w3.org/2000/svg"
   xmlns="http://www.w3.org/2000/svg"
   xmlns:sodipodi="http://sodipodi.sourceforge.net/DTD/sodipodi-0.dtd"
   xmlns:inkscape="http://www.inkscape.org/namespaces/inkscape"
   width="210mm"
   height="297mm"
   viewBox="0 0 210 297"
   version="1.1"
   id="svg3731"
   inkscape:version="0.92.3 (2405546, 2018-03-11)"
   sodipodi:docname="WORR logo.svg">
  <defs
     id="defs3725" />
  <sodipodi:namedview
     id="base"
     pagecolor="#ffffff"
     bordercolor="#666666"
     borderopacity="1.0"
     inkscape:pageopacity="0.0"
     inkscape:pageshadow="2"
     inkscape:zoom="0.75544332"
     inkscape:cx="396.85039"
     inkscape:cy="561.25984"
     inkscape:document-units="mm"
     inkscape:current-layer="layer1"
     showgrid="false"
     inkscape:window-width="1920"
     inkscape:window-height="1017"
     inkscape:window-x="-8"
     inkscape:window-y="-8"
     inkscape:window-maximized="1" />
  <metadata
     id="metadata3728">
    <rdf:RDF>
      <cc:Work
         rdf:about="">
        <dc:format>image/svg+xml</dc:format>
        <dc:type
           rdf:resource="http://purl.org/dc/dcmitype/StillImage" />
        <dc:title></dc:title>
      </cc:Work>
    </rdf:RDF>
  </metadata>
  <g
     inkscape:label="Layer 1"
     inkscape:groupmode="layer"
     id="layer1">
    <path
       style="fill:none;stroke:#000000;stroke-width:0.26458332px;stroke-linecap:butt;stroke-linejoin:miter;stroke-opacity:1"
       d="m 40.277123,97.015328 10.507075,25.216982 7.004717,-10.50708 v -5.60377 L 50.784198,116.2783 40.627358,90.711085 Z"
       id="path3733"
       inkscape:connector-curvature="0" />
    <path
       inkscape:connector-curvature="0"
       id="path3735"
       d="M 75.300707,97.015327 64.793632,122.23231 57.788915,111.72523 v -5.60377 l 7.004717,10.15684 10.15684,-25.567216 z"
       style="fill:none;stroke:#000000;stroke-width:0.26458332px;stroke-linecap:butt;stroke-linejoin:miter;stroke-opacity:1" />
    <ellipse
       style="fill:#000000;stroke-width:0.26458332"
       id="path3737"
       cx="88.327072"
       cy="114.62277"
       rx="7.3549528"
       ry="7.0047169" />
    <ellipse
       style="fill:#ffffff;stroke-width:0.29032513"
       id="path3739"
       cx="88.374901"
       cy="114.55105"
       rx="5.6037736"
       ry="6.5363703" />
    <path
       style="fill:none;stroke:#000000;stroke-width:0.26458332px;stroke-linecap:butt;stroke-linejoin:miter;stroke-opacity:1"
       d="m 112.77594,101.91863 v 0.35024 l 11.55779,19.96344 -5.60378,0.35024 -10.15684,-18.21227 v 18.21227 h -5.95401 l 0.35024,-31.871465 5.60377,-0.350236 v 1.751179"
       id="path3741"
       inkscape:connector-curvature="0" />
    <path
       style="fill:none;stroke:#000000;stroke-width:0.26458332px;stroke-linecap:butt;stroke-linejoin:miter;stroke-opacity:1"
       d="m 108.57311,92.112027 c 0,0 11.90802,-3.502358 13.30896,3.502359 1.40095,7.004714 -9.10613,6.654484 -9.10613,6.654484 v 0"
       id="path3743"
       inkscape:connector-curvature="0" />
    <path
       style="fill:none;stroke:#000000;stroke-width:0.26458332px;stroke-linecap:butt;stroke-linejoin:miter;stroke-opacity:1"
       d="m 110.0627,93.524442 -0.095,6.391264 c 0,0 8.18245,0.787034 8.39956,-3.229557 0.21712,-4.016589 -8.30457,-3.161707 -8.30457,-3.161707 z"
       id="path3747"
       inkscape:connector-curvature="0" />
    <path
       style="fill:none;stroke:#000000;stroke-width:0.26458332px;stroke-linecap:butt;stroke-linejoin:miter;stroke-opacity:1"
       d="M 80.47927,90.709712 C 95.592119,90.470585 95.639943,90.470585 95.639943,90.470585"
       id="path3749"
       inkscape:connector-curvature="0" />
    <path
       inkscape:connector-curvature="0"
       id="path3768"
       d="m 136.30607,101.82298 v 0.35024 l 11.55779,19.96344 -5.60378,0.35024 -10.15684,-18.21227 v 18.21227 h -5.95401 l 0.35024,-31.871466 5.60377,-0.350236 v 1.751179"
       style="fill:none;stroke:#000000;stroke-width:0.26458332px;stroke-linecap:butt;stroke-linejoin:miter;stroke-opacity:1" />
    <path
       inkscape:connector-curvature="0"
       id="path3770"
       d="m 132.10324,92.016376 c 0,0 11.90802,-3.502358 13.30896,3.502359 1.40095,7.004715 -9.10613,6.654485 -9.10613,6.654485 v 0"
       style="fill:none;stroke:#000000;stroke-width:0.26458332px;stroke-linecap:butt;stroke-linejoin:miter;stroke-opacity:1" />
    <path
       inkscape:connector-curvature="0"
       id="path3772"
       d="m 133.59283,93.428791 -0.095,6.391264 c 0,0 8.18245,0.787035 8.39956,-3.229557 0.21712,-4.016589 -8.30457,-3.161707 -8.30457,-3.161707 z"
       style="fill:none;stroke:#000000;stroke-width:0.26458332px;stroke-linecap:butt;stroke-linejoin:miter;stroke-opacity:1" />
    <path
       style="fill:none;stroke:#000000;stroke-width:0.26458332px;stroke-linecap:butt;stroke-linejoin:miter;stroke-opacity:1"
       d="m 30.272709,91.206721 14.06611,31.923949 v 0 0"
       id="path3798"
       inkscape:connector-curvature="0" />
    <path
       style="fill:none;stroke:#000000;stroke-width:0.26458332px;stroke-linecap:butt;stroke-linejoin:miter;stroke-opacity:1"
       d="m 148.48917,90.350527 14.06611,31.923953 v 0 0"
       id="path3798-0"
       inkscape:connector-curvature="0" />
    <path
       style="fill:none;stroke:#000000;stroke-width:0.26458332px;stroke-linecap:butt;stroke-linejoin:miter;stroke-opacity:1"
       d="m 30.272709,91.206721 8.500824,-0.122312"
       id="path3815"
       inkscape:connector-curvature="0" />
    <path
       style="fill:#666666;stroke:#000000;stroke-width:0.26458332px;stroke-linecap:butt;stroke-linejoin:miter;stroke-opacity:1"
       d="m 162.55528,122.27448 -11.61983,-0.12232"
       id="path3817"
       inkscape:connector-curvature="0" />
    <path
       style="fill:#666666;stroke-width:0.23114453"
       d="m 172.43451,413.57007 -19.5998,-47.03976 0.4938,-9.30048 c 0.27159,-5.11527 0.5669,-9.74106 0.65626,-10.27953 0.15396,-0.92779 1.14384,1.49195 18.9066,46.21678 10.30927,25.95771 18.8385,47.22112 18.95385,47.25202 0.11535,0.0309 5.98255,-8.33435 13.03824,-18.58944 l 12.82852,-18.64564 0.0604,9.41074 0.0604,9.41074 -12.74316,19.13004 c -7.00874,10.52153 -12.81339,19.2075 -12.89921,19.30216 -0.0858,0.0947 -8.97596,-20.99577 -19.75585,-46.86763 z"
       id="path3819"
       inkscape:connector-curvature="0"
       transform="scale(0.26458333)" />
    <path
       style="fill:#666666;stroke-width:0.23114453"
       d="m 231.85008,441.3122 -12.8668,-19.30059 v -9.50748 -9.50748 l 12.88631,18.68055 c 7.08746,10.2743 12.99032,18.67294 13.11745,18.66364 0.12713,-0.009 8.65636,-21.23598 18.95385,-47.1704 16.00161,-40.30037 18.74567,-47.04813 18.88069,-46.42845 0.0869,0.39878 0.38052,5.04168 0.6525,10.31756 l 0.4945,9.5925 -19.55962,46.91414 c -10.7578,25.80278 -19.58943,46.94395 -19.62585,46.98037 -0.0364,0.0364 -5.85629,-8.61904 -12.93303,-19.23436 z"
       id="path3821"
       inkscape:connector-curvature="0"
       transform="scale(0.26458333)" />
    <path
       style="fill:#666666;stroke-width:0.23114453"
       d="m 388.54305,454.31361 c 0.0734,-4.60844 0.38268,-31.40625 0.68722,-59.55068 0.30454,-28.14443 0.5936,-51.21159 0.64235,-51.26035 0.097,-0.097 17.53496,-1.23487 18.93811,-1.23574 l 0.86679,-5.4e-4 v 3.00488 c 0,2.43835 0.0617,3.00488 0.32745,3.00488 0.1801,0 0.36213,0.0967 0.40451,0.21487 0.0424,0.11818 1.31937,-0.089 2.83776,-0.46029 7.42085,-1.81485 15.07385,-2.66369 22.16912,-2.45892 7.71529,0.22266 12.89351,1.59821 17.32301,4.6017 5.14297,3.48727 8.14527,10.06311 7.7246,16.91892 -0.65016,10.59577 -10.78844,17.23134 -28.45678,18.62514 -4.55263,0.35914 -5.22498,0.32991 -5.22498,-0.22715 0,-0.34379 -0.15409,-0.46229 -0.60113,-0.46229 -1.56666,0 -1.68657,-0.2222 21.1299,39.15486 11.85211,20.45457 21.52109,37.21122 21.48663,37.23699 -0.0917,0.0686 -19.67801,1.26813 -19.72506,1.20802 -0.0219,-0.028 -8.79634,-15.75715 -19.49874,-34.95371 -10.70241,-19.19655 -19.55733,-35.00163 -19.67761,-35.12241 -0.13748,-0.13805 -0.21868,12.84272 -0.21868,34.96061 v 35.1802 h -10.634 -10.634 z m 41.47519,-76.36351 c 10.96484,-1.40322 16.79376,-5.16312 17.84567,-11.51121 0.7381,-4.45429 -1.55301,-8.31578 -6.29452,-10.60892 -4.37364,-2.11522 -8.77607,-2.92231 -16.89928,-3.09811 -3.13217,-0.0678 -6.47642,-0.05 -7.43168,0.0395 l -1.73682,0.16276 -0.13283,3.04507 c -0.0731,1.67479 -0.1613,7.3617 -0.1961,12.63758 l -0.0633,9.59249 2.19587,0.1426 c 3.11831,0.2025 9.5891,-0.002 12.71295,-0.40177 z"
       id="path3823"
       inkscape:connector-curvature="0"
       transform="scale(0.26458333)" />
    <path
       style="fill:#666666;stroke-width:0.23114453"
       d="m 477.38132,461.71024 c 0.004,-0.28604 0.30503,-27.07626 0.66901,-59.53381 0.36397,-32.45756 0.69877,-59.0448 0.74399,-59.08277 0.0452,-0.038 3.82676,-0.29424 8.40342,-0.5695 4.57666,-0.27525 9.0233,-0.56333 9.88143,-0.64017 l 1.56022,-0.13971 v 2.99568 c 0,3.83668 1.1e-4,3.83677 3.36497,2.98483 6.77136,-1.71442 13.39964,-2.54341 20.32735,-2.54233 5.952,9.2e-4 9.44733,0.45074 13.30928,1.71277 8.97745,2.93369 13.66206,9.28723 13.71502,18.60109 0.0191,3.35665 -0.40253,5.20996 -1.78783,7.85892 -1.022,1.95423 -4.37534,5.24363 -6.77199,6.64287 -3.60132,2.10254 -8.5816,3.76273 -13.95716,4.65265 -5.25816,0.87048 -11.09494,1.12976 -11.09494,0.49285 0,-0.21573 -0.2183,-0.34672 -0.57786,-0.34672 -1.50747,0 -1.664,-0.28959 21.01181,38.87421 11.87433,20.50835 21.56379,37.31519 21.53215,37.34852 -0.0711,0.0749 -17.72064,1.20372 -18.88423,1.20777 l -0.84159,0.003 -19.49913,-35.00888 c -10.72452,-19.25489 -19.57714,-35.01316 -19.67249,-35.0184 -0.0953,-0.005 -0.17336,15.74877 -0.17336,35.00889 v 35.01839 H 488.00675 477.3741 Z m 39.36314,-83.86358 c 8.04169,-0.70611 14.28572,-2.94557 17.35163,-6.22327 2.11008,-2.25584 3.17221,-5.62222 2.69966,-8.55646 -0.73456,-4.56124 -4.43227,-7.64089 -11.25127,-9.37067 -4.22457,-1.07165 -7.11737,-1.35416 -13.97752,-1.36506 -7.00808,-0.0111 -7.0334,-0.006 -7.25668,1.42112 -0.0558,0.35699 -0.16137,5.92171 -0.2345,12.36605 l -0.13296,11.71698 0.98881,0.0888 c 2.21967,0.19933 9.18029,0.15367 11.81283,-0.0775 z"
       id="path3825"
       inkscape:connector-curvature="0"
       transform="scale(0.26458333)" />
  </g>
</svg>
